<?xml version="1.0" encoding="UTF-8"?>
<svg xmlns="http://www.w3.org/2000/svg" version="1.1" viewBox="0 0 4000 4000">
  <!-- Generator: Adobe Illustrator 29.1.0, SVG Export Plug-In . SVG Version: 2.1.0 Build 142)  -->
  <defs>
    <style>
      .st0 {
        fill: #2d2d31;
      }

      .st1 {
        fill: #fff;
      }

      .st2 {
        display: none;
      }
    </style>
  </defs>
  <g id="Layer_2" class="st2">
    <rect class="st0" x="0" y="0" width="4000" height="4000"/>
  </g>
  <g id="Layer_1">
    <g class="st2">
      <g id="BSV_BLOCKCHAIN_LOGO_MASTER_WHITE">
        <path class="st1" d="M424.3,1997.2c20.3-10.7,31.7-29.2,31.7-52s-13.6-60.5-78.2-60.5h-175.1v235.3h189.6c48.9,0,77-23.9,77-65.7s-15.5-47.4-44.8-57.1ZM252.9,1924h112.9c36,0,40.2,16.9,40.2,29.5,0,20.2-13.5,30.5-40.2,30.5h-112.9v-60.1ZM378.6,2080.6h-125.8v-61.7h125.8c17.6,0,38.6,5.3,38.6,30.5s-12.3,31.2-38.6,31.2ZM1115.5,1884.6l-127.1,235.3h-64.8l-127.1-235.3h54.5l105.3,195.8,105-195.8h54.2ZM776.8,2052c0,65.9-71.2,74.4-133.3,74.4s-93.7-5.2-130.1-14.5v-41.7c5.7,1.9,12,3.6,19,5.3,30.7,7.2,72.2,11.5,111.1,11.5,67.8,0,81.7-13.5,81.7-33.7s-15.9-27.3-84.2-31.8l-12.9-1c-91.8-5.6-124.3-24.8-124.3-73.4s41.8-68.3,127.8-68.3,96.1,7.3,132.8,19.6v41.2c-30.9-15.3-92.8-21.4-136.3-21.4s-72.7,11.1-72.7,28.9,14.8,28.8,79,33.4l13.5,1c79.9,5.7,128.8,12.2,128.8,70.5Z"/>
      </g>
      <g>
        <path class="st1" d="M1259.7,2116.8v-238.2h92c59.5,0,95.2,24.8,95.2,65.5s-14.5,45.7-37.2,54.2c23.7,6.7,39.6,21.9,39.6,52,0,46.7-41.4,66.5-98.4,66.5h-91.3ZM1311.4,1977.7h42.8c28.3,0,41.1-9.9,41.1-29.4s-14.2-27.3-40.7-27.3h-43.2v56.6ZM1311.4,2074.3h42.5c25.1,0,43.9-5.7,43.9-27.6s-14.5-26.5-43.5-26.5h-42.8v54.2Z"/>
        <path class="st1" d="M1580.1,2069h111.1v47.8h-117.2c-32.9,0-45.7-17-45.7-44.2v-194h51.7v190.4Z"/>
        <path class="st1" d="M1735.4,1997.9c0-70.1,53.4-123.5,123.9-123.5s124.2,53.4,124.2,123.5-53.8,123.5-124.2,123.5-123.9-53.1-123.9-123.5ZM1930.1,1997.9c0-42.1-30.8-74.7-70.8-74.7s-70.8,32.6-70.8,74.7,31.1,74.7,70.8,74.7,70.8-32.6,70.8-74.7Z"/>
        <path class="st1" d="M2036.3,1997.9c0-69,54.2-123.9,123.5-123.9s81.1,21.9,98.7,59.1l-42.1,23.7c-11.7-20.5-30.1-33.6-58.8-33.6s-68.3,31.5-68.3,74.7,28.3,74.7,68.3,74.7,47.8-13.1,58.8-33.6l42.1,23.7c-17.7,37.2-57.3,59.1-98.7,59.1-69.4,0-123.5-54.9-123.5-123.9Z"/>
        <path class="st1" d="M2323.7,2116.8v-238.2h51.7v95.9h30.4c2.8-7.4,7.4-14.9,13.1-22.7l57.7-73.3h58.8l-68,87.4c-9.6,12.7-14.5,21.6-14.5,30.4s5,17.3,14.5,30.1l70.1,90.3h-63.4l-55.2-72.6c-5.7-7.4-9.9-14.9-12.7-22.3h-30.8v94.9h-51.7Z"/>
        <path class="st1" d="M2579.2,1997.9c0-69,54.2-123.9,123.5-123.9s81.1,21.9,98.7,59.1l-42.1,23.7c-11.7-20.5-30.1-33.6-58.8-33.6s-68.3,31.5-68.3,74.7,28.3,74.7,68.3,74.7,47.8-13.1,58.8-33.6l42.1,23.7c-17.7,37.2-57.3,59.1-98.7,59.1-69.4,0-123.5-54.9-123.5-123.9Z"/>
        <path class="st1" d="M2866.6,2116.8v-238.2h51.7v95.9h108.7v-95.9h51.7v238.2h-51.7v-94.9h-108.7v94.9h-51.7Z"/>
        <path class="st1" d="M3205.3,1912.2c8.1-25.8,29.4-38.2,51.7-38.2s43.9,12.4,52,38.2l63,204.6h-52.7l-13.8-48.8-96.6.4-13.8,48.5h-52.7l63-204.6ZM3222.3,2021.9h69.7l-26.9-94.5c-1.4-5-3.5-7.1-7.8-7.1s-6.4,2.1-7.8,7.1l-27.3,94.5Z"/>
        <path class="st1" d="M3492.7,1878.6v238.2h-51.7v-238.2h51.7Z"/>
        <path class="st1" d="M3581.9,2116.8v-205.6c0-23.7,17.3-37.5,36.8-37.5s28,5.7,35.7,18.8l94.1,161.4v-175.2h48.8v205.6c0,23.7-17.3,37.2-36.1,37.2s-28.3-5.3-36.1-18.4l-94.1-162.5v176.3h-49.2Z"/>
      </g>
    </g>
    <g>
      <g>
        <path class="st1" d="M844.5,1934h-40.3v112.8h-20v-112.8h-40.2v-18.4h100.5v18.4Z"/>
        <path class="st1" d="M846.3,1998.6c0-27.6,22.5-50.1,51.3-50.1s50.9,22.7,50.9,50.1-22.1,50.5-50.9,50.5-51.3-22.7-51.3-50.5ZM929.1,1998.8c0-17.6-13.7-32.1-31.5-32.1s-31.9,14.5-31.9,32.1,13.9,31.9,31.9,31.9,31.5-14.5,31.5-31.9Z"/>
        <path class="st1" d="M966.7,2067.2l16.3-8.8c5.7,10.4,16.3,17,30.2,17,20.2,0,33.9-14.5,33.9-37v-7.6c-6.3,10-18,17.4-34.1,17.4-27.2,0-48.8-21.5-48.8-49.7s21.9-49.9,51.1-49.9,51.1,21.5,51.1,50.1v39.6c0,33.3-22.3,55-52.9,55s-38-9-46.8-26ZM1046.8,1998.2c0-17.6-14.1-31.3-31.7-31.3s-31.7,13.7-31.7,31.3,14.3,31.7,31.7,31.7,31.7-14.1,31.7-31.7Z"/>
        <path class="st1" d="M1088.1,1998.2c0-27.6,19.8-50.1,48.6-50.1s47,21,47,47.8v7.8h-76.8c2.2,16.5,14.7,28,31.9,28s22.3-5.1,28-15.7l14.9,7.6c-8.4,16.5-23.9,25.3-42.7,25.3-29.2,0-50.9-21.2-50.9-50.7ZM1164.3,1991.2c-.8-15.3-11.9-25.7-27.8-25.7s-26.8,11.4-28.8,25.7h56.6Z"/>
        <path class="st1" d="M1213.9,2012.3v-44.7h-19v-16.8h19v-24.9h19.4v24.9h36.8v16.8h-36.8v44.1c0,12.5,7.4,20,19,20s13.1-2.4,17.8-5.7v17.8c-4.9,3.3-12.5,5.5-19.6,5.5-23.9,0-36.6-15.1-36.6-37Z"/>
        <path class="st1" d="M1298.9,2046.8v-140h19.4v54.8c7.4-8,19-13.1,31.9-13.1,28.2,0,44.1,18.8,44.1,48.2v50.1h-19.4v-48.2c0-17-9.4-31.7-27.6-31.7s-29,13.7-29,32.3v47.6h-19.4Z"/>
        <path class="st1" d="M1415.8,1998.2c0-27.6,19.8-50.1,48.6-50.1s47,21,47,47.8v7.8h-76.8c2.2,16.5,14.7,28,31.9,28s22.3-5.1,28-15.7l14.9,7.6c-8.4,16.5-23.9,25.3-42.7,25.3-29.2,0-50.9-21.2-50.9-50.7ZM1492,1991.2c-.8-15.3-11.9-25.7-27.8-25.7s-26.8,11.4-28.8,25.7h56.6Z"/>
        <path class="st1" d="M1534.5,2046.8v-57.2c0-23.3,13.3-40.7,38.4-40.7s12.3,1.2,17.2,3.5v19.2c-4.7-2.7-10.2-4.1-15.5-4.1-12.9,0-20.8,8.8-20.8,22.9v56.4h-19.4Z"/>
        <path class="st1" d="M1914,1934h-40.3v112.8h-20v-112.8h-40.2v-18.4h100.5v18.4Z"/>
        <path class="st1" d="M1915.8,1998.6c0-27.6,22.5-50.1,51.3-50.1s50.9,22.7,50.9,50.1-22.1,50.5-50.9,50.5-51.3-22.7-51.3-50.5ZM1998.6,1998.8c0-17.6-13.7-32.1-31.5-32.1s-31.9,14.5-31.9,32.1,13.9,31.9,31.9,31.9,31.5-14.5,31.5-31.9Z"/>
        <path class="st1" d="M2048.2,2031.7l-18.8-80.9h18.2l17.6,77.2c.6,2.4,1.4,3.5,3.5,3.5s2.7-1.4,3.1-3.1l15.7-62.5c2.9-11.8,9.6-17.4,19.8-17.4s16.7,5.5,19.6,17.2l15.5,62.7c.6,2,1.6,3.1,3.5,3.1s2.7-1.2,3.3-3.5l17-77.2h18l-18.2,80.9c-2.7,11.8-10.8,17.6-20.4,17.6s-16.7-5.9-19.4-17.4l-15.7-63.5c-.6-2-1.6-3.1-3.5-3.1s-2.7,1.2-3.1,3.1l-15.9,63.5c-2.7,11.6-9.4,17.4-19.4,17.4s-17.8-5.9-20.6-17.6Z"/>
        <path class="st1" d="M2195.6,1998.6c0-27.4,21.9-50.1,51.1-50.1s51.1,21.5,51.1,50.1v48.2h-18.4v-16.8c-7.2,11.8-20,19.2-35.6,19.2-27.8,0-48.2-22.7-48.2-50.5ZM2278.5,1998.8c0-17.6-13.7-32.1-31.7-32.1s-31.7,14.5-31.7,32.1,13.9,31.9,31.7,31.9,31.7-14.5,31.7-31.9Z"/>
        <path class="st1" d="M2325.7,2046.8v-57.2c0-23.3,13.3-40.7,38.4-40.7s12.3,1.2,17.2,3.5v19.2c-4.7-2.7-10.2-4.1-15.5-4.1-12.9,0-20.8,8.8-20.8,22.9v56.4h-19.4Z"/>
        <path class="st1" d="M2389.5,1999c0-29.2,21.2-50.5,50.1-50.5s24.7,5.7,32.5,14.3l.2-56h19.4v92.3c0,28.4-22.1,50.1-51.1,50.1s-51.1-22.5-51.1-50.1ZM2472.4,1998.8c0-17.4-13.7-31.9-31.7-31.9s-31.7,14.5-31.7,31.9,13.9,32.1,31.7,32.1,31.7-14.5,31.7-32.1Z"/>
        <path class="st1" d="M2515.1,2027.6l14.9-8.2c4.9,9.6,12.7,13.1,23.3,13.1s19.4-4.5,19.4-12.9c0-20.2-55-4.9-55-41.5s14.9-29.2,35.8-29.2,30,8.2,36,19.4l-14.9,8.4c-4.1-8.4-11.9-11.4-20.8-11.4s-16.8,4.7-16.8,12.3c0,19.6,55,5.3,55,41.5s-17.6,29.8-38,29.8-31.5-7-39-21.3Z"/>
        <path class="st1" d="M2677,2046.8v-131.2h46c32.1,0,51.7,12.7,51.7,34.9s-8.6,26.4-22.5,30.7c15.1,3.5,24.5,12.5,24.5,29.4,0,27.2-24.1,36.2-54.6,36.2h-45ZM2697,1973.2h26.6c21.9,0,31.1-6.7,31.1-21.4s-11.4-19.6-30.8-19.6h-27v40.9ZM2697,2030.2h26c18,0,33.7-3.5,33.7-21s-10.6-19.4-33.1-19.4h-26.6v40.3Z"/>
        <path class="st1" d="M2795.7,1998.2c0-27.6,19.8-50.1,48.6-50.1s47,21,47,47.8v7.8h-76.8c2.2,16.5,14.7,28,31.9,28s22.3-5.1,28-15.7l14.9,7.6c-8.4,16.5-23.9,25.3-42.7,25.3-29.2,0-50.9-21.2-50.9-50.7ZM2871.9,1991.2c-.8-15.3-11.9-25.7-27.8-25.7s-26.8,11.4-28.8,25.7h56.6Z"/>
        <path class="st1" d="M2921.5,2012.3v-44.7h-19v-16.8h19v-24.9h19.4v24.9h36.8v16.8h-36.8v44.1c0,12.5,7.4,20,19,20s13.1-2.4,17.8-5.7v17.8c-4.9,3.3-12.5,5.5-19.6,5.5-23.9,0-36.6-15.1-36.6-37Z"/>
        <path class="st1" d="M3008.6,2012.3v-44.7h-19v-16.8h19v-24.9h19.4v24.9h36.8v16.8h-36.8v44.1c0,12.5,7.4,20,19,20s13.1-2.4,17.8-5.7v17.8c-4.9,3.3-12.5,5.5-19.6,5.5-23.9,0-36.6-15.1-36.6-37Z"/>
        <path class="st1" d="M3081.7,1998.2c0-27.6,19.8-50.1,48.6-50.1s47,21,47,47.8v7.8h-76.8c2.2,16.5,14.7,28,31.9,28s22.3-5.1,28-15.7l14.9,7.6c-8.4,16.5-23.9,25.3-42.7,25.3-29.2,0-50.9-21.2-50.9-50.7ZM3157.9,1991.2c-.8-15.3-11.9-25.7-27.8-25.7s-26.8,11.4-28.8,25.7h56.6Z"/>
        <path class="st1" d="M3200.4,2046.8v-57.2c0-23.3,13.3-40.7,38.4-40.7s12.3,1.2,17.2,3.5v19.2c-4.7-2.7-10.2-4.1-15.5-4.1-12.9,0-20.8,8.8-20.8,22.9v56.4h-19.4Z"/>
      </g>
      <polygon class="st1" points="1657.4 2057.2 1657.4 1931.3 1689.4 1949.8 1766.4 1994.2 1657.4 2057.2"/>
    </g>
  </g>
</svg>