<?xml version="1.0" encoding="UTF-8"?>
<svg id="Layer_1" data-name="Layer 1" xmlns="http://www.w3.org/2000/svg" viewBox="0 0 2000 2000">
  <defs>
    <style>
      .cls-1 {
        fill: #003fff;
      }
    </style>
  </defs>
  <path class="cls-1" d="M1000,1900c-10.02,0-20.02-2.9-28.66-8.68l-678.67-452.44c-14.38-9.59-23.01-25.71-23.01-42.99v-791.78c0-19.05,10.48-36.56,27.29-45.56,16.8-8.96,37.19-8.02,53.05,2.57l678.67,452.44c14.38,9.59,23.01,25.71,23.01,42.99v791.78c0,19.05-10.48,36.56-27.29,45.56-7.64,4.09-16.02,6.11-24.38,6.11ZM373,1368.23l575.33,383.54v-667.58l-575.33-383.54v667.58Z"/>
  <path class="cls-1" d="M1000.05,1900c-16.7,0-33.09-8.07-43.04-23.01-15.83-23.74-9.41-55.83,14.33-71.65l655.66-437.1v-667.58l-598.33,398.88c-23.75,15.84-55.85,9.39-71.65-14.33-15.83-23.74-9.41-55.83,14.33-71.65l678.67-452.44c15.87-10.55,36.26-11.53,53.05-2.57,16.8,9.01,27.29,26.52,27.29,45.56v791.78c0,17.28-8.63,33.4-23.01,42.99l-678.67,452.44c-8.81,5.88-18.77,8.68-28.61,8.68Z"/>
  <path class="cls-1" d="M1678.62,655.77c-9.85,0-19.81-2.8-28.61-8.68L1000,213.75l-650.01,433.35c-23.75,15.84-55.85,9.39-71.65-14.33-15.83-23.74-9.41-55.83,14.33-71.65L971.34,108.67c17.36-11.56,39.96-11.56,57.32,0l678.67,452.44c23.74,15.82,30.16,47.91,14.33,71.65-9.95,14.94-26.34,23.01-43.04,23.01Z"/>
</svg>