<?xml version="1.0" encoding="UTF-8"?>
<svg id="Layer_1" data-name="Layer 1" xmlns="http://www.w3.org/2000/svg" viewBox="0 0 2000 2000">
  <defs>
    <style>
      .cls-1 {
        fill: #003fff;
      }
    </style>
  </defs>
  <path class="cls-1" d="M1000,1279.63c-154.19,0-279.63-125.45-279.63-279.63s125.44-279.63,279.63-279.63,279.63,125.45,279.63,279.63-125.44,279.63-279.63,279.63ZM1000,814.35c-102.37,0-185.65,83.28-185.65,185.65s83.28,185.65,185.65,185.65,185.65-83.28,185.65-185.65-83.28-185.65-185.65-185.65Z"/>
  <path class="cls-1" d="M1006.21,1900c-111.42,0-202.08-90.65-202.08-202.08v-6.97c-.13-32.1-19.4-61.19-49.07-73.92-30.94-13.61-65.98-7.27-89.78,15.99l-4.23,4.24c-38.22,38.25-89,59.26-142.99,59.26s-104.78-21.02-142.97-59.22c-38.18-38.18-59.2-88.95-59.2-142.93s21.03-104.78,59.22-142.96l4.66-4.66c22.91-23.45,29.26-58.5,15.82-88.95-12.92-30.15-42.01-49.4-74.3-49.53h-19.19c-111.42,0-202.08-90.65-202.08-202.08s90.66-202.08,202.08-202.08h6.97c32.12-.11,61.19-19.36,73.91-49.05,13.65-30.93,7.28-65.98-15.99-89.78l-4.29-4.29c-38.19-38.18-59.2-88.95-59.2-142.93s21.02-104.78,59.2-142.96c38.18-38.2,88.95-59.22,142.95-59.22s104.78,21.02,142.97,59.22l4.57,4.54c23.52,23.01,58.54,29.39,89.03,15.92,4.42-1.95,9.1-3.19,13.87-3.72,25.55-14.09,41.74-40.98,41.86-70.57v-19.2c0-111.43,90.66-202.08,202.08-202.08s202.08,90.65,202.08,202.08v6.97c.13,32.1,19.4,61.19,49.07,73.92,30.9,13.61,65.96,7.3,89.76-15.99l4.29-4.29c38.18-38.2,88.95-59.22,142.96-59.22s104.77,21.02,142.96,59.22c78.81,78.81,78.81,207.08-.01,285.89l-4.66,4.66c-22.91,23.42-29.26,58.48-15.83,88.95,1.95,4.43,3.2,9.09,3.73,13.88,14.08,25.54,40.98,41.73,70.58,41.85h12.99c111.42,0,202.08,90.65,202.08,202.08s-90.66,202.08-202.08,202.08h-6.97c-32.11.14-61.2,19.39-73.91,49.07-.07.14-.14.3-.21.46-13.43,30.47-7.08,65.52,16.2,89.32l4.24,4.22c78.85,78.88,78.85,207.13.05,285.96-78.83,78.83-207.09,78.83-285.9,0l-4.66-4.66c-23.45-22.9-58.5-29.23-88.93-15.83-30.17,12.94-49.42,42.01-49.54,74.29v13.01c0,111.43-90.66,202.08-202.08,202.08ZM721.72,1515.85c23.86,0,47.93,4.91,70.81,15,63.68,27.3,105.28,90.14,105.57,159.91v7.16c0,59.61,48.5,108.11,108.11,108.11s108.11-48.5,108.11-108.11v-13.19c.26-69.95,41.89-132.79,106.03-160.28,65.3-28.79,141.04-15.1,192.49,35.19l5.02,5.02c42.19,42.17,110.81,42.17,153.01,0,42.18-42.19,42.18-110.84-.01-153.03l-4.6-4.59c-50.63-51.76-64.4-127.4-35.49-193.16,27.53-63.99,90.3-105.51,159.99-105.79h7.17c59.61,0,108.11-48.5,108.11-108.11s-48.5-108.11-108.11-108.11h-13.18c-69.96-.28-132.8-41.89-160.29-106.02-2.08-4.86-3.33-10.03-3.68-15.28-23.75-63.48-9.01-134.49,38.88-183.43l5.02-5.02c42.18-42.19,42.18-110.81,0-153.01-20.44-20.44-47.61-31.68-76.5-31.68s-56.07,11.24-76.5,31.68l-4.67,4.66c-51.78,50.63-127.52,64.4-193.34,35.33-63.65-27.28-105.26-90.12-105.55-159.89v-7.16c0-59.61-48.5-108.11-108.11-108.11s-108.11,48.5-108.11,108.11v19.39c-.29,69.95-41.89,132.79-106.02,160.28-4.86,2.09-10.04,3.33-15.3,3.69-63.48,23.77-134.49,8.99-183.42-38.89l-4.93-4.91c-20.52-20.53-47.69-31.78-76.59-31.78s-56.06,11.24-76.49,31.68c-42.19,42.19-42.19,110.81-.01,153.01l4.66,4.66c50.67,51.78,64.4,127.52,35.35,193.32-27.28,63.69-90.13,105.31-159.91,105.56h-7.15c-59.61,0-108.11,48.5-108.11,108.11s48.5,108.11,108.11,108.11h19.39c69.96.28,132.79,41.89,160.28,106.02,28.84,65.34,15.12,141.08-35.18,192.51l-5.02,5.02c-20.43,20.44-31.68,47.61-31.68,76.51s11.25,56.05,31.68,76.49c20.44,20.44,47.61,31.68,76.51,31.68s56.06-11.24,76.49-31.68l4.61-4.61c33.81-33.06,77.8-50.41,122.56-50.41Z"/>
</svg>