<?xml version="1.0" encoding="UTF-8"?>
<svg id="Layer_1" data-name="Layer 1" xmlns="http://www.w3.org/2000/svg" viewBox="0 0 2000 2000">
  <defs>
    <style>
      .cls-1 {
        fill: #003fff;
      }
    </style>
  </defs>
  <g>
    <path class="cls-1" d="M1795,1052.12H202.58c-28.79,0-52.13-23.34-52.13-52.13s23.34-52.13,52.13-52.13h1592.42c28.79,0,52.13,23.34,52.13,52.13s-23.34,52.13-52.13,52.13Z"/>
    <path class="cls-1" d="M1795,1734.6h-909.96c-28.79,0-52.13-23.34-52.13-52.13V317.54c0-28.79,23.34-52.13,52.13-52.13h909.96c28.79,0,52.13,23.34,52.13,52.13s-23.34,52.13-52.13,52.13h-857.83v1260.68h857.83c28.79,0,52.13,23.34,52.13,52.13s-23.34,52.13-52.13,52.13Z"/>
  </g>
  <rect class="cls-1" x="100" y="895" width="210" height="210"/>
  <rect class="cls-1" x="1690" y="895" width="210" height="210"/>
  <rect class="cls-1" x="1690" y="212.54" width="210" height="210"/>
  <rect class="cls-1" x="1690" y="1577.46" width="210" height="210"/>
</svg>