<?xml version="1.0" encoding="UTF-8"?>
<svg id="Layer_1" data-name="Layer 1" xmlns="http://www.w3.org/2000/svg" viewBox="0 0 2000 2000">
  <defs>
    <style>
      .cls-1 {
        fill: #003fff;
      }
    </style>
  </defs>
  <path class="cls-1" d="M636.11,1899.94c-13.24,0-26.47-5.05-36.57-15.16l-484.38-484.36c-9.7-9.7-15.16-22.86-15.16-36.57s5.46-26.88,15.16-36.57l727.29-727.29c20.18-20.21,52.94-20.21,73.15,0l363.17,363.14c20.21,20.21,20.21,52.94,0,73.15-20.18,20.21-52.94,20.21-73.15,0l-326.59-326.57L224.89,1363.85l411.22,411.21,327.07-327.07c20.18-20.21,52.97-20.21,73.15,0,20.21,20.21,20.21,52.94,0,73.15l-363.65,363.65c-10.09,10.1-23.34,15.16-36.57,15.16Z"/>
  <path class="cls-1" d="M1120.98,1415.07c-13.24,0-26.48-5.05-36.57-15.16l-363.65-363.65c-20.21-20.21-20.21-52.94,0-73.15,20.18-20.21,52.97-20.21,73.15,0l327.07,327.07,654.13-654.15-411.7-411.71-326.93,326.95c-20.18,20.21-52.94,20.21-73.15,0-20.21-20.21-20.21-52.94,0-73.15l363.51-363.52c19.4-19.4,53.75-19.4,73.15,0l484.86,484.86c20.21,20.21,20.21,52.94,0,73.15l-727.29,727.29c-10.09,10.1-23.34,15.16-36.57,15.16Z"/>
</svg>