<?xml version="1.0" encoding="UTF-8"?>
<svg id="Layer_1" data-name="Layer 1" xmlns="http://www.w3.org/2000/svg" viewBox="0 0 2000 2000">
  <defs>
    <style>
      .cls-1 {
        fill: #003fff;
      }
    </style>
  </defs>
  <g>
    <path class="cls-1" d="M1000,1900c-7.32,0-14.66-1.56-21.47-4.7l-687.88-315.87c-18.28-8.39-29.99-26.66-29.99-46.76v-710.68c0-28.42,23.04-51.46,51.46-51.46h1375.76c28.42,0,51.46,23.04,51.46,51.46v710.68c0,20.1-11.71,38.37-29.99,46.76l-687.88,315.87c-6.81,3.14-14.15,4.7-21.47,4.7ZM363.58,1499.68l636.42,292.22,636.42-292.22v-626.23H363.58v626.23Z"/>
    <path class="cls-1" d="M1000,1505.56c-28.42,0-51.46-23.04-51.46-51.46v-158.32c0-28.42,23.04-51.46,51.46-51.46s51.46,23.04,51.46,51.46v158.32c0,28.42-23.04,51.46-51.46,51.46Z"/>
    <path class="cls-1" d="M1002.06,1347.24h-4.12c-93.58,0-169.72-76.13-169.72-169.71s76.13-169.73,169.72-169.73h4.12c93.58,0,169.72,76.13,169.72,169.73s-76.13,169.71-169.72,169.71ZM997.94,1110.72c-36.84,0-66.8,29.98-66.8,66.81s29.96,66.79,66.8,66.79h4.12c36.84,0,66.8-29.95,66.8-66.79s-29.96-66.81-66.8-66.81h-4.12Z"/>
  </g>
  <path class="cls-1" d="M1364.88,596.45c-28.42,0-51.46-23.04-51.46-51.46,0-188.63-140.6-342.07-313.42-342.07s-313.42,153.45-313.42,342.07c0,28.42-23.04,51.46-51.46,51.46s-51.46-23.04-51.46-51.46c0-245.36,186.77-444.99,416.34-444.99s416.34,199.63,416.34,444.99c0,28.42-23.04,51.46-51.46,51.46Z"/>
  <path class="cls-1" d="M635.12,840.48c-28.42,0-51.46-23.04-51.46-51.46v-244.03c0-28.42,23.04-51.46,51.46-51.46s51.46,23.04,51.46,51.46v244.03c0,28.42-23.04,51.46-51.46,51.46Z"/>
  <path class="cls-1" d="M1364.88,840.48c-28.42,0-51.46-23.04-51.46-51.46v-244.03c0-28.42,23.04-51.46,51.46-51.46s51.46,23.04,51.46,51.46v244.03c0,28.42-23.04,51.46-51.46,51.46Z"/>
</svg>