<?xml version="1.0" encoding="UTF-8"?>
<svg id="Layer_1" data-name="Layer 1" xmlns="http://www.w3.org/2000/svg" viewBox="0 0 2000 2000">
  <defs>
    <style>
      .cls-1 {
        fill: #003fff;
      }
    </style>
  </defs>
  <path class="cls-1" d="M1621.2,1900H378.8c-28.76,0-52.08-23.32-52.08-52.08,0-507.13,302.03-919.73,673.28-919.73s673.29,412.6,673.29,919.73c0,28.76-23.32,52.08-52.08,52.08ZM432.03,1795.83h1135.94c-18.79-425.55-266.36-763.48-567.98-763.48s-549.17,337.94-567.96,763.48Z"/>
  <path class="cls-1" d="M999.99,834.72c-202.55,0-367.35-164.8-367.35-367.36S797.44,100,999.99,100s367.36,164.8,367.36,367.36-164.8,367.36-367.36,367.36ZM999.99,204.17c-145.11,0-263.18,118.08-263.18,263.19s118.07,263.19,263.18,263.19,263.19-118.08,263.19-263.19-118.07-263.19-263.19-263.19Z"/>
</svg>