<?xml version="1.0" encoding="UTF-8"?>
<svg id="Layer_1" data-name="Layer 1" xmlns="http://www.w3.org/2000/svg" viewBox="0 0 2000 2000">
  <defs>
    <style>
      .cls-1 {
        fill: #003fff;
      }
    </style>
  </defs>
  <path class="cls-1" d="M1848.21,1369.86h-212.06c-28.6,0-51.79-23.19-51.79-51.79s23.19-51.79,51.79-51.79h160.28V309.59H203.57v956.7h1009.37c28.6,0,51.79,23.19,51.79,51.79s-23.19,51.79-51.79,51.79H151.79c-28.6,0-51.79-23.19-51.79-51.79V257.8c0-28.6,23.19-51.79,51.79-51.79h1696.43c28.6,0,51.79,23.19,51.79,51.79v1060.27c0,28.6-23.19,51.79-51.79,51.79Z"/>
  <path class="cls-1" d="M1212.93,1793.98c-6.66,0-13.38-1.29-19.77-3.92-19.37-8.02-32-26.9-32-47.87v-424.12c0-28.6,23.19-51.79,51.79-51.79s51.79,23.19,51.79,51.79v298.91l334.77-335.5c20.19-20.2,52.99-20.28,73.23-.08s20.28,53,.08,73.25l-423.21,424.12c-9.9,9.91-23.16,15.2-36.66,15.2Z"/>
</svg>