<?xml version="1.0" encoding="UTF-8"?>
<svg id="Layer_1" data-name="Layer 1" xmlns="http://www.w3.org/2000/svg" viewBox="0 0 2000 2000">
  <defs>
    <style>
      .cls-1 {
        fill: #003fff;
      }
    </style>
  </defs>
  <path class="cls-1" d="M1000,1901.82h-.01c-240.54-.03-466.65-93.84-636.72-264.19C12.25,1286.03,12.25,713.95,363.26,362.35,533.35,192,759.48,98.18,1000,98.18s466.65,93.82,636.74,264.17h0c351.03,351.6,351.02,923.7-.01,1275.3-170.06,170.35-396.2,264.17-636.72,264.17ZM1000,201.99c-212.77,0-412.81,83-563.27,233.71-310.66,311.15-310.66,817.44,0,1128.59,150.46,150.71,350.48,233.71,563.26,233.73,212.77,0,412.81-83,563.27-233.71,310.65-311.13,310.61-817.44.01-1128.62h0c-150.46-150.71-350.5-233.71-563.27-233.71Z"/>
  <path class="cls-1" d="M1563.77,1083.03h-563.78c-28.66,0-51.9-23.24-51.9-51.9V461.77c0-28.66,23.24-51.9,51.9-51.9s51.9,23.24,51.9,51.9v517.46h511.88c28.66,0,51.9,23.24,51.9,51.9s-23.24,51.9-51.9,51.9Z"/>
</svg>