<?xml version="1.0" encoding="UTF-8"?>
<svg id="Layer_1" data-name="Layer 1" xmlns="http://www.w3.org/2000/svg" viewBox="0 0 2000 2000">
  <defs>
    <style>
      .cls-1 {
        fill: #003fff;
      }
    </style>
  </defs>
  <path class="cls-1" d="M455.79,1419.95c-28.66,0-51.9-23.24-51.9-51.9s23.24-51.9,51.9-51.9c190.27,0,345.06-141.83,345.06-316.14s-154.79-316.14-345.06-316.14c-28.66,0-51.9-23.24-51.9-51.9s23.24-51.9,51.9-51.9c247.51,0,448.87,188.38,448.87,419.95s-201.36,419.95-448.87,419.95Z"/>
  <path class="cls-1" d="M455.79,683.86h-246.13c-28.66,0-51.9-23.24-51.9-51.9s23.24-51.9,51.9-51.9h246.13c28.66,0,51.9,23.24,51.9,51.9s-23.24,51.9-51.9,51.9Z"/>
  <path class="cls-1" d="M455.79,1419.95h-246.13c-28.66,0-51.9-23.24-51.9-51.9s23.24-51.9,51.9-51.9h246.13c28.66,0,51.9,23.24,51.9,51.9s-23.24,51.9-51.9,51.9Z"/>
  <path class="cls-1" d="M1848.1,1581.98H151.9c-28.66,0-51.9-23.24-51.9-51.9V469.93c0-28.66,23.24-51.9,51.9-51.9h1696.19c28.66,0,51.9,23.24,51.9,51.9v1060.14c0,28.66-23.24,51.9-51.9,51.9ZM203.81,1478.17h1592.38v-956.33H203.81v956.33Z"/>
</svg>